<svg id="Layer_1" data-name="Layer 1" xmlns="http://www.w3.org/2000/svg" viewBox="0 0 417.34 417.34"><defs><style>.cls-1{fill:none;stroke:#000;stroke-miterlimit:10;stroke-width:10px;}</style></defs><path d="M390.92,342.89a95.06,95.06,0,0,1,4.68-27.12c4.28-12.92,10.67-24.8,17.29-36.59,2.28-4.08,4.68-8.09,7-12.13.64-1.1,1.19-1.53,2.05-.09,6.18,10.43,12.36,20.87,17.53,31.85,1.39,2.95,2.34,6.13,3.86,9,2.71,5.14,4.14,10.72,5.43,16.28,2.23,9.59,3.22,19.34,1,29.12-2.59,11.44-9.68,19.46-19.54,25.29-1.4.83-3,1.38-4.39,2.18-5.62,3.2-10.15-.15-14.71-2.58-4.72-2.52-8.49-6.21-12-10.31-3.68-4.3-5.51-9.27-6.9-14.57C391.28,349.53,391.3,345.74,390.92,342.89Z" transform="translate(-212.8 -98.16)"/><path d="M255.08,270.26c4.45-.41,8.36.34,12.28,1a136.38,136.38,0,0,1,37.56,11,66.38,66.38,0,0,1,22.54,15.95,4.48,4.48,0,0,1,1.33,3.83,100.34,100.34,0,0,0,.57,25.68c1.61,11,5,21.28,12.38,29.89,1,1.18,2.1,2.28,3.23,3.5a4.75,4.75,0,0,1-3.18,0,104.2,104.2,0,0,1-33.14-12.54C294.9,340.53,285,329.14,278.06,315c-2.93-6-4.58-12.37-6.42-18.71a56.7,56.7,0,0,0-8.82-18.34A40.13,40.13,0,0,0,255.08,270.26Z" transform="translate(-212.8 -98.16)"/><path d="M584.64,270.18a30.81,30.81,0,0,1-3.36,4.05c-4.44,3.93-6.86,9.11-9.24,14.33-2.48,5.46-3.8,11.3-5.59,17a77.42,77.42,0,0,1-14,25.7,79,79,0,0,1-26,20.56,96.49,96.49,0,0,1-23,8.35c-2.51.56-5,1.47-8.1,1.08a46,46,0,0,0,10.05-13.42c3.52-7.19,5.29-14.86,6.32-22.73a97.22,97.22,0,0,0,.8-16.27,15.22,15.22,0,0,0-.33-3.84c-1.17-3.79.38-6.4,3-9,7.42-7.16,16.13-12.1,25.61-15.95a139.45,139.45,0,0,1,24.66-7.43c6-1.23,12-2.5,18.22-2.48C584.26,270.15,584.73,270.19,584.64,270.18Z" transform="translate(-212.8 -98.16)"/><path d="M395.79,375.41a28.45,28.45,0,0,1-9.73,1.66,41.18,41.18,0,0,1-24.1-6,46.64,46.64,0,0,1-16.89-17.92,70.07,70.07,0,0,1-8.6-34.43c.06-5.58.08-11.15.61-16.72a21.91,21.91,0,0,0-1.8-10.85A39.74,39.74,0,0,1,344,294c7.66,3.14,15.43,6.11,22.44,10.63,6.21,4,12.28,8.2,15.8,15.05a10.09,10.09,0,0,1,1,6.1c-.6,5.31-1.27,10.66-.85,16,.51,6.4,1.19,12.74,3.45,18.84A34.88,34.88,0,0,0,395.79,375.41Z" transform="translate(-212.8 -98.16)"/><path d="M505.28,291c-2.54,9.26-.75,18.45-.84,27.59-.17,15.67-4.1,30.22-14.13,42.5-5.81,7.12-13.18,12.36-22.43,14.57a50.16,50.16,0,0,1-20.41.61c-.72-.13-1.6-.32-1.85-.92s.65-.94,1.08-1.38c5.45-5.42,8.56-12.06,10.16-19.5a81.78,81.78,0,0,0,1.49-22.18,22.89,22.89,0,0,0-.49-3.39c-1.35-6.35,1-11.42,5.45-15.73,5.72-5.52,12.39-9.59,19.49-13.08A188.94,188.94,0,0,1,505.28,291Z" transform="translate(-212.8 -98.16)"/><path d="M447.34,294.6c-1.24-1.23-1.2-2.7-1.75-3.93-3.34-7.48-6.35-15.13-10.34-22.32-4.09-7.39-8.22-14.76-12.51-22.05-1.15-2-1.27-2-2.45,0-6.85,11.86-14.18,23.47-19.33,36.21-1.46,3.59-3.52,6.94-4.38,10.77-.12.52-.33,1-.92,1s-.58-.55-.73-.95A51.49,51.49,0,0,1,392,267.32a130.46,130.46,0,0,1,3.55-16.72c1.57-5.85,4.2-11.26,6.61-16.73,5.1-11.63,11.76-22.45,18.16-33.4.93-1.58,1.42-1.66,2.34-.09,5.94,10.08,11.88,20.16,17,30.69,1.3,2.68,2.06,5.63,3.51,8.22,2.81,5,4.32,10.48,5.65,15.94,2.9,11.83,4.08,23.8.19,35.72A38.52,38.52,0,0,1,447.34,294.6Z" transform="translate(-212.8 -98.16)"/><path d="M455.41,295c.55-2.41,1.17-4.81,1.65-7.23a85.32,85.32,0,0,0,1.69-23.86A44.27,44.27,0,0,0,455.16,249c-.6-1.31.37-1.72.92-2.23a111.36,111.36,0,0,1,36.72-22.29c1.26-.49,1.72-.15,1.88,1.26a132.38,132.38,0,0,1,.74,20.78,80.66,80.66,0,0,1-2.09,14.82c-.36,1.58-1.76,1.93-2.92,2.52a82.73,82.73,0,0,0-18.93,12.82c-5.25,4.82-9.54,10.46-13.75,16.16-.58.78-1.14,1.56-1.71,2.34Z" transform="translate(-212.8 -98.16)"/><path d="M386.8,295.8c-2.42-3.14-4.85-6.25-7.25-9.4a74.57,74.57,0,0,0-27.15-22.12,6.41,6.41,0,0,1-3.92-4.83,97.28,97.28,0,0,1-1.53-25c.14-2.71.28-5.43.54-8.14.14-1.45.33-2.26,2.5-1.51,13.6,4.69,25.25,12.48,36,21.76a2.4,2.4,0,0,1,.74,3.28c-3.09,7.32-3.91,15-3.47,22.88a99.13,99.13,0,0,0,1.81,14.88c.57,2.69,1.32,5.35,2,8Z" transform="translate(-212.8 -98.16)"/><path d="M379.32,302.44c-8.38-5.68-16.32-11-24.92-15.25-8.77-4.31-17.67-8.35-27.08-11.13-1.64-.49-2,.13-1.54,1.52a66.14,66.14,0,0,1,1.74,9.46c.06.4.31.87-.15,1.18s-.62,0-.92-.26a147.2,147.2,0,0,0-20.6-13.85c-4-2.25-5.08-6.37-6.21-10.32-1-3.59-1.06-7.33-1.15-11.06,0-1.74.54-2.11,2.13-1.68A149.14,149.14,0,0,1,339.8,268c13,7.94,24.88,17.14,35,28.53C376.33,298.25,378.14,299.78,379.32,302.44Z" transform="translate(-212.8 -98.16)"/><path d="M514,289.08a44.47,44.47,0,0,1,1.72-11.28c.33-1.17.8-1.82-1.15-1.32-8,2-15.41,5.39-22.83,8.82a193.32,193.32,0,0,0-27.31,15.91c-.57.39-1.1.81-2.16,1.6,1.19-2.8,3-4.34,4.56-6A134.11,134.11,0,0,1,487.33,278c13.05-9.44,26.75-17.7,42.11-22.95,4-1.35,8-2.44,12-3.7,1.11-.36,1.68-.15,1.64,1.06-.2,6.36-.72,12.62-3.87,18.42-1.52,2.78-4.1,3.8-6.5,5.3A159.88,159.88,0,0,0,514,289.08Z" transform="translate(-212.8 -98.16)"/><path d="M420.49,410.82c-8-.26-15.73-2.19-22.61-6.75a17,17,0,0,1-5-5.49,2.34,2.34,0,0,1-.37-1.84c1-3.87,2.17-7.64,4.67-10.86a11.47,11.47,0,0,1,1.14-1.27c1.21-1.15,2-1.32,3,.49,2.38,4.19,6.41,6.27,10.89,7.61a30.53,30.53,0,0,0,15.23.75c5.54-1.18,10.63-3.39,13.4-8.84.68-1.33,1.12-1.23,2.13-.36,3.36,2.87,4.84,6.79,6,10.82,1.16,4.18-1.87,6.53-4.63,8.58C437.35,408.87,429.2,410.57,420.49,410.82Z" transform="translate(-212.8 -98.16)"/><path d="M452.8,385.41c2.6.11,5.17-.3,7.75-.34a44.49,44.49,0,0,0,29.16-10.91,6.93,6.93,0,0,0,1.67-1.92c1.21-2.36,3-2.13,5.06-1.44,5.58,1.85,9.83,5.62,13.95,9.57a16.84,16.84,0,0,1,2.19,2.36c3.35,4.74,8.21,6.82,13.65,7.94a2.14,2.14,0,0,1,.54.31C517.86,398.67,464.76,394.81,452.8,385.41Z" transform="translate(-212.8 -98.16)"/><path d="M315.43,391c3.76-.86,7-1.74,10-3.58a15.7,15.7,0,0,0,3.42-3.13c4.33-5,9-9.51,15-12.46a27.06,27.06,0,0,1,4.43-1.47,1.82,1.82,0,0,1,2.18.8c6.14,7.48,14.29,11.29,23.64,13.1,5.27,1,10.59,1,16,1.41a95.76,95.76,0,0,1-26,7.85C339.08,397.62,321.5,393.89,315.43,391Z" transform="translate(-212.8 -98.16)"/><path d="M504.89,365.78a74.05,74.05,0,0,0,12.49-2.13,70.91,70.91,0,0,0,15.2-6,52,52,0,0,0,10.62-7.08c1-.87,1.85-.47,2.93-.26,9.8,1.88,17.88,7,25.5,13.11,1.41,1.14,1.52,1.73-.38,2.52a111.33,111.33,0,0,1-20.56,6.23,86.53,86.53,0,0,1-21.36,1.17A55.46,55.46,0,0,1,506,367,2,2,0,0,1,504.89,365.78Z" transform="translate(-212.8 -98.16)"/><path d="M337.9,365.8c-.59,1.29-1.77,1.54-2.74,2-9.89,4.78-20.39,6.07-31.26,5.72a87.17,87.17,0,0,1-29.3-6.38c-1.19-.47-2.37-1-3.6-1.34-1.59-.47-1.42-1.12-.36-2a74.44,74.44,0,0,1,13-8.81,58.46,58.46,0,0,1,14-5c1.05-.25,1.62.46,2.23,1,5.77,4.84,12.42,8.14,19.39,10.8A57,57,0,0,0,337,365.63,6.54,6.54,0,0,1,337.9,365.8Z" transform="translate(-212.8 -98.16)"/><path d="M564.47,331.09c2.94-3,5.79-5.64,7.88-8.93a27.44,27.44,0,0,0,4-8.18,1.65,1.65,0,0,1,1.69-1.35c7.55-.27,15,.31,21.93,3.6,2.35,1.12,2.32,1.47.58,3.48a44.28,44.28,0,0,1-22.47,13.69c-1.82.5-3.32-.33-4.94-.79A52.54,52.54,0,0,0,564.47,331.09Z" transform="translate(-212.8 -98.16)"/><path d="M278.31,331.13a39.41,39.41,0,0,0-10.83,2.23c-2.39.82-4.57-.38-6.61-1.1a45.73,45.73,0,0,1-19-12.69c-1.24-1.38-1.1-2.24.47-3.09a27,27,0,0,1,10.73-3.25c3.21-.24,6.38-.81,9.62-.74,2.07,0,3.34.22,4.13,2.77,1.74,5.57,5.45,10.05,9.65,14.06C277,329.8,277.45,330.29,278.31,331.13Z" transform="translate(-212.8 -98.16)"/><path d="M293.1,346.54c-1.45,1.19-3.15,1.29-4.64,1.9-3,1.25-6.09,2.33-8.79,4.21a2.81,2.81,0,0,1-2.78.42,120.83,120.83,0,0,0-19.34-5.21c-1.13-.18-2.28-.17-3.42-.27-.39,0-.95.2-1.13-.3s.26-.82.64-1.19a26.42,26.42,0,0,1,6.1-4.58c6.61-3.39,13.41-6.3,21.09-6.07.78,0,1.58-.13,2,.78A24.91,24.91,0,0,0,293.1,346.54Z" transform="translate(-212.8 -98.16)"/><path d="M549.65,346.52c4.33-2.59,7.89-5.76,10.13-10.21a1.71,1.71,0,0,1,1.78-.88,40,40,0,0,1,16.93,3.86A35.51,35.51,0,0,1,589,346c.35.34.92.57.79,1.13s-.83.36-1.27.4a85.6,85.6,0,0,0-20.3,4.72c-2.34.83-4.31,1.07-6.53-.44a35,35,0,0,0-10.15-4.29A3.83,3.83,0,0,1,549.65,346.52Z" transform="translate(-212.8 -98.16)"/><circle class="cls-1" cx="208.67" cy="208.67" r="203.67"/></svg>